<svg xmlns="http://www.w3.org/2000/svg" width="511.999" height="382.029" viewBox="0 0 511.999 382.029">
  <g id="check1" transform="translate(0 -64.985)">
    <path id="Trazado_1" data-name="Trazado 1" d="M427.534,73.084l-224.51,224.51a15.5,15.5,0,0,1-21.914,0L84.465,200.949,8.1,277.313,153.884,423.1a54,54,0,0,0,38.183,15.816h0A54,54,0,0,0,230.249,423.1L503.9,149.448Z" fill="#8cd65b"/>
    <path id="Trazado_3" data-name="Trazado 3" d="M192.068,447.014a61.694,61.694,0,0,1-43.912-18.189L2.372,283.04a8.1,8.1,0,0,1,0-11.454L78.738,195.22a8.1,8.1,0,0,1,11.455,0l28.668,28.667a8.1,8.1,0,1,1-11.455,11.454L84.466,212.4,19.555,277.312,159.613,417.37a45.9,45.9,0,0,0,64.912,0L411.476,230.418a8.1,8.1,0,0,1,11.455,11.454L235.979,428.826A61.7,61.7,0,0,1,192.068,447.014Z" fill="#0b850b"/>
    <path id="Trazado_4" data-name="Trazado 4" d="M192.068,310.232a23.436,23.436,0,0,1-16.684-6.911l-45.068-45.068A8.1,8.1,0,1,1,141.771,246.8l45.068,45.068a7.4,7.4,0,0,0,10.459,0L421.806,67.357a8.1,8.1,0,0,1,11.455,0l76.366,76.366a8.1,8.1,0,0,1,0,11.454L445.84,218.964a8.1,8.1,0,0,1-11.455-11.454l58.061-58.06-64.91-64.91L208.752,303.321A23.446,23.446,0,0,1,192.068,310.232Z" fill="#0b850b"/>
  </g>
</svg>
