<svg xmlns="http://www.w3.org/2000/svg" width="511.985" height="512" viewBox="0 0 511.985 512">
  <g id="cross1" transform="translate(-0.008)">
    <path id="Trazado_5" data-name="Trazado 5" d="M380.688,256l116.3-116.3a22.33,22.33,0,0,0,0-31.579L403.88,15.015a22.33,22.33,0,0,0-31.579,0L256,131.314,139.7,15.015a22.33,22.33,0,0,0-31.579,0L15.015,108.122a22.33,22.33,0,0,0,0,31.579L131.314,256,15.015,372.3a22.33,22.33,0,0,0,0,31.579l93.108,93.107a22.33,22.33,0,0,0,31.579,0L256,380.687l116.3,116.3a22.33,22.33,0,0,0,31.579,0l93.108-93.107a22.33,22.33,0,0,0,0-31.579Z" fill="#ef5455"/>
    <path id="Trazado_6" data-name="Trazado 6" d="M388.082,511.986a30.708,30.708,0,0,1-21.781-9.008l-43.847-43.846a8.474,8.474,0,1,1,11.984-11.983l43.846,43.846a13.873,13.873,0,0,0,19.6,0l93.105-93.107a13.855,13.855,0,0,0,0-19.6l-116.3-116.3a8.473,8.473,0,0,1,0-11.983l116.3-116.3a13.855,13.855,0,0,0,0-19.6L397.882,21.006a13.858,13.858,0,0,0-19.6,0l-116.3,116.3a8.476,8.476,0,0,1-11.986,0L184.464,71.768a8.474,8.474,0,0,1,11.984-11.983l59.544,59.545L366.3,9.023a30.8,30.8,0,0,1,43.562,0l93.108,93.108a30.8,30.8,0,0,1,0,43.562L392.664,256,502.971,366.306a30.8,30.8,0,0,1,0,43.563l-93.105,93.107A30.706,30.706,0,0,1,388.082,511.986Z" fill="#810607"/>
    <path id="Trazado_7" data-name="Trazado 7" d="M123.9,512a30.6,30.6,0,0,1-21.781-9.022L9.015,409.87a30.84,30.84,0,0,1,0-43.564L119.323,256,9.015,145.692a30.842,30.842,0,0,1,0-43.564L102.123,9.021a30.805,30.805,0,0,1,43.563,0L172.48,35.816A8.474,8.474,0,1,1,160.5,47.8L133.7,21.005a13.858,13.858,0,0,0-19.6,0L21,114.112a13.873,13.873,0,0,0,0,19.6l116.3,116.3a8.476,8.476,0,0,1,0,11.984L21,378.291a13.872,13.872,0,0,0,0,19.6l93.108,93.108a13.858,13.858,0,0,0,19.6,0L250,374.7a8.476,8.476,0,0,1,11.986,0l48.485,48.485a8.474,8.474,0,0,1-11.984,11.983L256,392.67,145.69,502.978A30.617,30.617,0,0,1,123.9,512Z" fill="#810607"/>
  </g>
</svg>
