<svg xmlns="http://www.w3.org/2000/svg" width="512.407" height="512.091" viewBox="0 0 512.407 512.091">
  <g id="undo" transform="translate(0 -0.158)">
    <g id="Grupo_1" data-name="Grupo 1">
      <path id="Trazado_1" data-name="Trazado 1" d="M470.216,364.612c-69.65,137.36-243.62,170.05-358.1,83.94a240.54,240.54,0,0,1-96.08-192.34c0-132.52,107.41-240,240-240C435.215,16.212,550.611,205.778,470.216,364.612Z" fill="#cbcbcb"/>
    </g>
    <g id="Grupo_4" data-name="Grupo 4">
      <path id="Trazado_4" data-name="Trazado 4" d="M22.642,216.342A16.008,16.008,0,0,1,7.049,196.694c.181-.775.367-1.54.564-2.311a16,16,0,1,1,31,7.927c-.143.558-.276,1.112-.408,1.673a16,16,0,0,1-15.565,12.359Z" fill="#646464"/>
    </g>
    <g id="Grupo_5" data-name="Grupo 5">
      <path id="Trazado_5" data-name="Trazado 5" d="M256.255,512.249c-144.207,0-258.766-118.4-256.213-260.413a16,16,0,1,1,31.994.575,224.27,224.27,0,0,0,101.19,191.2c71.735,46.942,165.606,48.723,239.159,4.015C477.93,383.471,511.6,245.409,447.448,139.864,356.3-10.087,134.6-1.836,55.764,155.805a16,16,0,0,1-28.621-14.314C73.222,49.352,174.138-10.911,285.136,1.862A255.577,255.577,0,0,1,474.794,123.241C579.033,294.735,453.821,512.243,256.255,512.249Z" fill="#646464"/>
    </g>
    <path id="Trazado_6" data-name="Trazado 6" d="M288.036,184.212H206.663l4.687-4.687A16,16,0,1,0,188.723,156.9c-34.208,34.208-33.805,33.181-35.467,37.19a15.8,15.8,0,0,0-1.042,8.38c1.011,7.1,2.046,6.594,36.509,41.057a15.947,15.947,0,0,0,11.313,4.687c14.125,0,21.424-17.205,11.313-27.313l-4.687-4.687h81.373a40,40,0,0,1,0,80h-88a16,16,0,0,0,0,32h88a72,72,0,0,0,0-144Z" fill="#646464"/>
  </g>
</svg>
